<svg xmlns="http://www.w3.org/2000/svg" xml:space="preserve" style="enable-background:new 0 0 500 500" viewBox="0 0 500 500"><path d="m500 250-26.784 29.409 18.32 35.309-33.487 21.454 8.483 38.858-37.913 12.025-1.841 39.723-39.734 1.841-12.024 37.924-38.859-8.494-21.454 33.498-35.298-18.321L250 500l-29.419-26.774-35.299 18.321-21.464-33.498-38.859 8.494-12.014-37.924-39.723-1.841-1.851-39.734-37.913-12.023 8.483-38.849-33.488-21.454 18.321-35.309L0 250l26.774-29.409-18.321-35.309 33.488-21.453-8.483-38.859 37.913-12.014 1.851-39.734 39.734-1.841 12.014-37.913 38.859 8.484 21.453-33.489 35.299 18.321L250 0l29.409 26.784 35.309-18.321 21.454 33.499 38.858-8.494 12.014 37.913 39.734 1.851 1.841 39.734 37.913 12.014-8.483 38.859 33.487 21.443-18.32 35.309z" style="fill:#9dd2d8"/><path d="M338.038 153.646h-71.711c-4.934 0-8.968 4.028-8.968 8.962v71.716c0 4.923 4.034 8.962 8.968 8.962h71.711c4.929 0 8.967-4.038 8.967-8.962v-71.716c0-4.934-4.038-8.962-8.967-8.962z" style="fill:#484b4d"/><path d="M320.236 204.478h-36.117c-3.805 0-6.923-2.706-6.923-6.012 0-3.316 3.118-6.012 6.923-6.012h36.117c3.819 0 6.922 2.696 6.922 6.012 0 3.306-3.102 6.012-6.922 6.012z" style="fill:#f1f6f6"/><path d="M233.676 153.646h-71.719c-4.932 0-8.965 4.028-8.965 8.962v71.716c0 4.923 4.033 8.962 8.965 8.962h71.719c4.926 0 8.964-4.038 8.964-8.962v-71.716c0-4.934-4.038-8.962-8.964-8.962z" style="fill:#484b4d"/><path d="M215.876 204.468h-12.049v12.055c0 3.814-2.701 6.938-6.012 6.938-3.301 0-6.012-3.123-6.012-6.938v-12.055h-12.052c-3.812 0-6.92-2.696-6.92-6.002 0-3.316 3.108-6.012 6.92-6.012h12.052v-12.055c0-3.814 2.711-6.927 6.012-6.927 3.311 0 6.012 3.113 6.012 6.927v12.055h12.049c3.815 0 6.92 2.696 6.92 6.012 0 3.306-3.105 6.002-6.92 6.002z" style="fill:#f1f6f6"/><path d="M233.676 256.704h-71.719c-4.932 0-8.965 4.038-8.965 8.962v71.716c0 4.934 4.033 8.973 8.965 8.973h71.719c4.926 0 8.964-4.039 8.964-8.973v-71.716c0-4.924-4.038-8.962-8.964-8.962z" style="fill:#484b4d"/><path d="M197.82 276.316c3.835 0 6.938 3.103 6.938 6.917a6.935 6.935 0 0 1-6.938 6.948 6.937 6.937 0 0 1-6.943-6.948c0-3.814 3.103-6.917 6.943-6.917zM197.82 326.741a6.943 6.943 0 0 1-6.943-6.947 6.935 6.935 0 0 1 6.943-6.938 6.934 6.934 0 0 1 6.938 6.938c0 3.835-3.103 6.947-6.938 6.947zM215.876 307.536h-36.125c-3.812 0-6.92-2.706-6.92-6.013 0-3.315 3.108-6.012 6.92-6.012h36.125c3.815 0 6.92 2.696 6.92 6.012 0 3.307-3.105 6.013-6.92 6.013z" style="fill:#f1f6f6"/><path d="M338.038 256.704h-71.711c-4.934 0-8.968 4.038-8.968 8.962v71.716c0 4.934 4.034 8.973 8.968 8.973h71.711c4.929 0 8.967-4.039 8.967-8.973v-71.716c0-4.924-4.038-8.962-8.967-8.962z" style="fill:#fc6e51"/><path d="M320.236 319.112h-36.112c-3.81 0-6.928-2.706-6.928-6.012 0-3.316 3.118-6.023 6.928-6.023h36.112c3.819 0 6.928 2.706 6.928 6.023 0 3.306-3.108 6.012-6.928 6.012zM320.236 295.979h-36.112c-3.81 0-6.928-2.706-6.928-6.012 0-3.326 3.118-6.032 6.928-6.032h36.112c3.819 0 6.928 2.706 6.928 6.032 0 3.306-3.108 6.012-6.928 6.012z" style="fill:#f1f6f6"/></svg>