<svg xmlns="http://www.w3.org/2000/svg" xml:space="preserve" width="396.23" height="396.23" fill="#00D8FF" ><path fill="#00D8FF" d="M344.543.561H51.686C23.19.561 0 23.747 0 52.248v291.737c0 28.5 23.189 51.686 51.686 51.686h292.856c28.499 0 51.688-23.186 51.688-51.686V52.248C396.231 23.747 373.042.561 344.543.561zm31.013 51.687v135.531H208.454V21.236h136.089c17.101 0 31.013 13.911 31.013 31.012zM51.686 21.236h136.092v166.543H20.677V52.248c0-17.101 13.908-31.012 31.009-31.012zM20.677 343.984V208.453h167.102v166.543H51.686c-17.101 0-31.009-13.912-31.009-31.012zm323.866 31.012H208.454V208.453h167.103v135.531c-.001 17.1-13.913 31.012-31.014 31.012z"/><path fill="#00D8FF" d="M242.966 119.299h37.011v37.006a10.335 10.335 0 0 0 10.338 10.337c5.705 0 10.337-4.629 10.337-10.337v-37.009h37.009c5.705 0 10.338-4.628 10.338-10.337 0-5.708-4.633-10.337-10.338-10.337h-37.009V61.614c0-5.708-4.632-10.338-10.337-10.338-5.715 0-10.338 4.629-10.338 10.338v37.01h-37.011c-5.7 0-10.334 4.629-10.334 10.338s4.633 10.337 10.334 10.337zM59.047 155.724a10.303 10.303 0 0 0 7.309 3.029c2.644 0 5.29-1.01 7.31-3.029l32.152-32.15 32.152 32.153a10.304 10.304 0 0 0 7.309 3.028 10.31 10.31 0 0 0 7.309-3.028c4.039-4.036 4.039-10.582 0-14.618l-32.152-32.15 32.152-32.146c4.039-4.035 4.039-10.58 0-14.618a10.333 10.333 0 0 0-14.617 0l-32.152 32.147-32.144-32.148c-4.038-4.038-10.579-4.038-14.618 0-4.038 4.036-4.038 10.583 0 14.618l32.145 32.146-32.153 32.147c-4.04 4.037-4.04 10.581-.002 14.619zM144.522 282.82l-77.4.002c-5.713 0-10.336 4.629-10.336 10.338s4.623 10.338 10.336 10.338l77.4-.004c5.711 0 10.335-4.627 10.335-10.336s-4.624-10.338-10.335-10.338zM329.018 304.781l-77.409.004c-5.713 0-10.336 4.627-10.336 10.336s4.623 10.338 10.336 10.338l77.409-.002c5.701 0 10.338-4.629 10.338-10.338s-4.636-10.338-10.338-10.338zM329.018 260.854l-77.409.002c-5.713 0-10.336 4.629-10.336 10.338s4.623 10.338 10.336 10.338l77.409-.004c5.701 0 10.338-4.629 10.338-10.336-.001-5.71-4.636-10.338-10.338-10.338z"/></svg>